<?xml version="1.0" encoding="utf-8"?>
<!-- Generator: Adobe Illustrator 23.0.5, SVG Export Plug-In . SVG Version: 6.00 Build 0)  -->
<svg version="1.1" id="Capa_1" xmlns="http://www.w3.org/2000/svg" xmlns:xlink="http://www.w3.org/1999/xlink" x="0px" y="0px"
	 viewBox="0 0 500 150" style="enable-background:new 0 0 500 150;" xml:space="preserve">
<path d="M317.75,60.6c-0.86-2.35-1.53-4.2-2.2-6.05c-2.72-7.47-6.53-14.34-11.85-20.25c-1.73-1.92-1.49-2.88,0.4-4.32
	c12.14-9.24,25.85-13.26,41.02-12.59c27.11,1.19,51.53,22.09,56.69,48.53c8.8,45.06-32.51,83.12-76.78,70.76
	c-26.22-7.32-43.78-29.51-44.87-56.68c-0.73-18.26-12.13-30.45-28.98-30.98c-12.43-0.39-23.9,7.1-28.27,18.45
	c-4.56,11.85-1.26,25.03,8.27,33.04c9.6,8.06,23.25,9.25,34,3.04c3.37-1.95,6.24-4.48,9.2-7.68c1.95,6.14,4.03,11.81,7.21,17.02
	c2.03,3.31,4.07,6.63,6.79,9.39c1.88,1.92,1.32,2.82-0.52,4.26c-18.87,14.8-47.13,16.69-68.16,4.45
	c-22.4-13.03-34.3-38.07-30.07-63.3c4.05-24.16,23.8-44.22,48.56-49.28c36.62-7.5,71.87,19.67,73.55,57.05
	c0.53,11.82,4.22,21.44,14.61,27.82c11.06,6.79,25.39,5.4,35.1-3.41c9.76-8.85,12.42-22.65,6.68-34.58
	c-5.57-11.58-18.19-17.9-31.13-15.89C329.21,50.61,323.1,54.52,317.75,60.6z"/>
<path d="M185.52,76.24c0,16.37,0.01,32.74-0.01,49.1c-0.01,7.87-2.49,10.33-10.3,10.36c-4.37,0.01-8.75-0.17-13.12,0.05
	c-5.01,0.25-8.34-1.95-10.5-6.29c-3-6.03-6.03-12.04-9-18.09c-8.07-16.47-16.16-32.93-24.13-49.45c-1.46-3.02-2.38-6.3-3.58-9.45
	c-0.28-0.75-0.35-1.98-1.59-1.56c-0.89,0.3-0.48,1.29-0.44,1.96c1.77,26.09,0.29,52.21,0.92,78.3c0.09,3.91-1.02,4.85-4.73,4.63
	c-5.48-0.33-10.99-0.16-16.49-0.05c-2,0.04-2.84-0.36-2.83-2.64c0.08-33.74,0.02-67.47,0.1-101.21c0.01-6.2,2.77-8.91,8.95-9.13
	c5.12-0.18,10.24-0.04,15.37-0.04c3.83,0,6.74,1.62,8.62,4.97c1.1,1.96,2.18,3.93,3.15,5.95c11.38,23.6,23.63,46.77,34.27,70.73
	c0.37,0.83,0.42,2.31,1.69,2.09c1.45-0.25,0.71-1.63,0.66-2.5c-1.53-26.09-0.41-52.21-0.81-78.32c-0.03-2.28,0.6-3.04,2.93-2.98
	c5.87,0.15,11.75,0.19,17.61-0.01c2.68-0.09,3.33,0.79,3.31,3.37C185.46,42.75,185.52,59.5,185.52,76.24z"/>
<path d="M428.68,112.85c7.37,0.41,14.74,1.18,22.1,0.33c6.3-0.73,8.66-2.62,9.38-7.32c1.14-7.42-0.51-11.76-6.2-14.03
	c-7.76-3.1-15.73-5.68-23.6-8.52c-2.82-1.02-5.66-2.02-8.38-3.27c-10.89-4.99-17.14-13.31-18.28-25.4
	c-0.65-6.93-0.36-13.73,1.73-20.38c1.95-6.23,5.98-10.52,12.16-12.81c4.61-1.71,9.38-2.67,14.24-3.06
	c15.66-1.28,31.2-0.54,46.6,2.77c2.98,0.64,3.84,1.88,3.31,4.81c-0.62,3.43-1,6.94-1.13,10.42c-0.08,2.4-1.01,2.77-3.19,2.73
	c-10.25-0.23-20.49-0.28-30.74-0.36c-2.5-0.02-5,0.04-7.5,0.15c-7.03,0.32-9.55,1.87-10.46,6.32c-1.46,7.11,0.62,11.82,6.56,14.62
	c1.8,0.85,3.69,1.54,5.58,2.19c6.26,2.16,12.48,4.46,18.82,6.36c23.07,6.91,30.54,23.49,23.81,49.6
	c-1.94,7.52-7.5,11.87-14.81,14.04c-10.09,2.99-20.46,3.18-30.85,2.86c-10.01-0.32-19.91-1.63-29.77-3.38
	c-2.98-0.53-3.57-1.73-3.16-4.46c0.55-3.57,0.98-7.21,0.94-10.81c-0.03-3.19,1.4-3.53,4.07-3.45
	C416.18,112.97,422.44,112.85,428.68,112.85z"/>
<path d="M7.76,79.72c0-10.87-0.03-21.74,0.01-32.61c0.05-14.72,8.65-23.76,23.34-24C48.1,22.83,65.09,23,82.05,24.26
	c2.48,0.18,3.43,0.9,3.12,3.54c-0.48,4.09-0.71,8.22-0.78,12.33c-0.04,2.48-0.96,3.11-3.36,3.09c-12.74-0.12-25.48-0.06-38.23-0.05
	c-8.27,0.01-9.99,1.77-10.02,10.19c-0.01,4,0.16,8-0.06,11.99c-0.14,2.65,0.74,3.37,3.35,3.35c12.74-0.13,25.49,0.04,38.23-0.13
	c3.07-0.04,4.19,0.73,3.94,3.9c-0.28,3.48-0.24,7-0.01,10.48c0.19,2.87-0.57,3.86-3.66,3.81c-12.61-0.19-25.23,0.01-37.85-0.15
	c-2.97-0.04-4.18,0.52-4.02,3.81c0.29,5.98,0.01,11.99,0.11,17.98c0.11,6.4,2.27,8.52,8.68,8.54c13.12,0.04,26.23,0.08,39.35-0.04
	c2.53-0.02,3.54,0.62,3.57,3.27c0.05,4.12,0.38,8.23,0.76,12.34c0.18,1.98-0.21,2.95-2.46,3.09c-17.34,1.09-34.71,1.8-52.06,1.14
	c-15.04-0.57-22.85-9.39-22.89-24.43C7.74,101.46,7.76,90.59,7.76,79.72z"/>
</svg>
