<?xml version="1.0" encoding="utf-8"?>
<!-- Generator: Adobe Illustrator 23.0.5, SVG Export Plug-In . SVG Version: 6.00 Build 0)  -->
<svg version="1.1" id="Capa_1" xmlns="http://www.w3.org/2000/svg" xmlns:xlink="http://www.w3.org/1999/xlink" x="0px" y="0px"
	 viewBox="0 0 165.4 154.2" style="enable-background:new 0 0 165.4 154.2;" xml:space="preserve">
<style type="text/css">
	.st0{clip-path:url(#SVGID_2_);}
	.st1{fill:#019970;}
	.st2{clip-path:url(#SVGID_4_);}
	.st3{fill:#FFFFFF;}
</style>
<g>
	<g>
		<defs>
			<rect id="SVGID_1_" x="13.7" y="9.5" width="138" height="138"/>
		</defs>
		<clipPath id="SVGID_2_">
			<use xlink:href="#SVGID_1_"  style="overflow:visible;"/>
		</clipPath>
		<g class="st0">
			<path class="st1" d="M36.5,147.5h92.4c12.6,0,22.8-10.2,22.8-22.8V32.3c0-12.6-10.2-22.8-22.8-22.8H36.5
				C24,9.5,13.7,19.7,13.7,32.3v92.4C13.7,137.2,24,147.5,36.5,147.5z"/>
		</g>
	</g>
	<g>
		<defs>
			<rect id="SVGID_3_" x="28.3" y="45.8" width="108.8" height="64"/>
		</defs>
		<clipPath id="SVGID_4_">
			<use xlink:href="#SVGID_3_"  style="overflow:visible;"/>
		</clipPath>
		<g class="st2">
			<path class="st3" d="M137.1,77.6c0,17.3-14,31.3-31.2,31.3c-3.7,0-7.5-0.7-11-2c0,0,0,0,0,0h0v0h0c0,0,0,0,0,0
				c-3.3-1.3-6.4-3.1-9.1-5.4c-1-0.9-2-1.8-2.9-2.8c-5.2-5.7-8.1-13.2-8.1-21c0-2.8-0.8-5.5-2.2-7.9l0,0v0h0c-0.2-0.3-0.4-0.7-0.7-1
				c-4.9-6.7-14.3-8.2-21-3.2s-8.1,14.4-3.2,21.1c4.9,6.7,14.3,8.2,21,3.2c1.2-0.9,2.3-2,3.2-3.2c1.4,5.6,4.2,10.7,8.1,14.9
				C66.7,112.6,47,111.1,35.9,98c-0.8-0.9-1.5-1.8-2.1-2.8c0,0,0-0.1,0-0.1c-3.5-5.2-5.4-11.3-5.3-17.5c0-0.6,0-1.3,0.1-1.9
				c1-16.4,14.6-29.4,31.2-29.4c6.2,0,12.3,1.9,17.4,5.3c0,0,0,0,0,0c1,0.7,1.9,1.4,2.8,2.1c1.1,0.9,2,1.8,2.9,2.8
				c5.2,5.7,8.1,13.2,8.1,21c0,2.2,0.5,4.4,1.4,6.4c0,0,0,0,0,0c0.4,0.9,0.9,1.7,1.5,2.5c4.9,6.7,14.3,8.2,21,3.2
				c6.7-4.9,8.1-14.4,3.2-21.1c-0.7-0.9-1.4-1.8-2.3-2.5c0,0,0,0,0,0c-6.3-5.4-15.8-4.7-21.2,1.6c-0.3,0.3-0.5,0.6-0.7,0.9
				c-1.5-5.6-4.2-10.7-8.1-14.9c8.5-7.2,20.1-9.4,30.6-5.7h0c8,2.9,14.5,8.9,18,16.6l0,0c0,0,0,0.1,0,0.1
				C136.2,68.9,137.1,73.2,137.1,77.6"/>
		</g>
	</g>
</g>
</svg>
