<svg xmlns="http://www.w3.org/2000/svg" viewBox="0 0 135.65 30">
	<g id="Layer_2" data-name="Layer 2">
		<path d="M38.92,49.56a3.32,3.32,0,0,0,.75.15,6.28,6.28,0,0,0,.75,0,6.39,6.39,0,0,0,1.81-.26,6.65,6.65,0,0,0,1.63-.74,6,6,0,0,0,1.35-1.17,6.14,6.14,0,0,0,1-1.53l4.69,4.71A12.7,12.7,0,0,1,48.82,53a13.18,13.18,0,0,1-2.5,1.71,12.48,12.48,0,0,1-2.84,1.07,13.16,13.16,0,0,1-8-.62,12.66,12.66,0,0,1-4.08-2.75,12.83,12.83,0,0,1-2.75-4.18,13.79,13.79,0,0,1-1-5.33,14.24,14.24,0,0,1,1-5.44,12.3,12.3,0,0,1,6.83-6.89,13,13,0,0,1,5-1,12.59,12.59,0,0,1,3.07.38,12.61,12.61,0,0,1,5.37,2.8,12.72,12.72,0,0,1,2.06,2.28ZM42.2,36.37a3.52,3.52,0,0,0-.88-.21,6.51,6.51,0,0,0-.9,0,6.4,6.4,0,0,0-2.47.48,6,6,0,0,0-2,1.37,6.32,6.32,0,0,0-1.34,2.14,7.67,7.67,0,0,0-.5,2.83c0,.23,0,.5,0,.8a7.43,7.43,0,0,0,.12.9,8.06,8.06,0,0,0,.2.88,3.17,3.17,0,0,0,.3.75Z" transform="translate(-27.6 -29.64)" />
		<path d="M61.73,55.7h-6.4V30.6h1.55L59,33a11.21,11.21,0,0,1,7.59-2.93,10.79,10.79,0,0,1,4.34.88,11.09,11.09,0,0,1,3.56,2.41A11.31,11.31,0,0,1,76.88,37a10.87,10.87,0,0,1,.88,4.37V55.7h-6.4V41.36A4.64,4.64,0,0,0,71,39.5,4.79,4.79,0,0,0,70,38a4.85,4.85,0,0,0-1.53-1,4.57,4.57,0,0,0-1.85-.38,4.88,4.88,0,0,0-1.9.38,4.76,4.76,0,0,0-2.57,2.57,4.65,4.65,0,0,0-.38,1.86Z" transform="translate(-27.6 -29.64)" />
		<path d="M107.77,42.93a13.59,13.59,0,0,1-1,5.24A13.23,13.23,0,0,1,104,52.36,12.83,12.83,0,0,1,100,55.15a12.72,12.72,0,0,1-10,0,12.87,12.87,0,0,1-4.08-2.79,13.11,13.11,0,0,1-2.76-4.19,13.58,13.58,0,0,1-1-5.24,13.78,13.78,0,0,1,1-5.3,12.94,12.94,0,0,1,2.76-4.2A12.68,12.68,0,0,1,90,30.65a12.42,12.42,0,0,1,5-1,13.17,13.17,0,0,1,5,.95A12.1,12.1,0,0,1,104,33.28a13,13,0,0,1,2.74,4.2A14.22,14.22,0,0,1,107.77,42.93Zm-6.45,0a7.55,7.55,0,0,0-.5-2.8A6.81,6.81,0,0,0,99.45,38a6,6,0,0,0-2-1.38,6.62,6.62,0,0,0-5,0,5.82,5.82,0,0,0-2,1.38,6.6,6.6,0,0,0-1.35,2.16,7.55,7.55,0,0,0-.49,2.8,7.15,7.15,0,0,0,.49,2.69,6.81,6.81,0,0,0,1.35,2.16,6.28,6.28,0,0,0,2,1.44,6,6,0,0,0,2.48.53,6.19,6.19,0,0,0,4.5-1.88,6.66,6.66,0,0,0,1.37-2.15A7.65,7.65,0,0,0,101.32,42.93Z" transform="translate(-27.6 -29.64)" />
		<path d="M136.76,42.93a13.58,13.58,0,0,1-1,5.24A13.26,13.26,0,0,1,133,52.36,12.79,12.79,0,0,1,129,55.15a12.74,12.74,0,0,1-10,0,12.93,12.93,0,0,1-6.83-7,13.59,13.59,0,0,1-1-5.24,13.78,13.78,0,0,1,1-5.3,12.84,12.84,0,0,1,6.83-7,12.49,12.49,0,0,1,5-1,13.22,13.22,0,0,1,5,.95A12.05,12.05,0,0,1,133,33.28a13,13,0,0,1,2.75,4.2A14.22,14.22,0,0,1,136.76,42.93Zm-6.44,0a7.35,7.35,0,0,0-.51-2.8A6.48,6.48,0,0,0,128.44,38a5.86,5.86,0,0,0-2-1.38,6.62,6.62,0,0,0-5,0,5.82,5.82,0,0,0-2,1.38,6.6,6.6,0,0,0-1.35,2.16,7.55,7.55,0,0,0-.49,2.8,7.15,7.15,0,0,0,.49,2.69,6.81,6.81,0,0,0,1.35,2.16,6.28,6.28,0,0,0,2,1.44,5.92,5.92,0,0,0,2.47.53,6.27,6.27,0,0,0,2.48-.49,6,6,0,0,0,2-1.39,6.34,6.34,0,0,0,1.37-2.15A7.45,7.45,0,0,0,130.32,42.93Z" transform="translate(-27.6 -29.64)" />
		<path d="M155.28,55.7H140.66V49.33h14.62a1.6,1.6,0,0,0,1.6-1.6.88.88,0,0,0-.47-.89,2.75,2.75,0,0,0-1.13-.21h-6.65a7.77,7.77,0,0,1-3.12-.63,8,8,0,0,1-4.23-4.27,7.85,7.85,0,0,1-.62-3.11,7.92,7.92,0,0,1,4.85-7.35,7.76,7.76,0,0,1,3.12-.62h13V37h-13a1.56,1.56,0,0,0-1.13.47,1.55,1.55,0,0,0-.47,1.13,1.62,1.62,0,0,0,.47,1.16,1.54,1.54,0,0,0,1.13.48h6.65a8.61,8.61,0,0,1,3.1.55,8,8,0,0,1,2.53,1.53,7.27,7.27,0,0,1,1.71,2.37,7.2,7.2,0,0,1,.63,3,7.68,7.68,0,0,1-.63,3.11,8.31,8.31,0,0,1-1.71,2.53,7.88,7.88,0,0,1-5.63,2.33Z" transform="translate(-27.6 -29.64)" />
	</g>
</svg>
